<?xml version="1.0" encoding="utf-8"?>
<!-- Generator: Adobe Illustrator 26.3.1, SVG Export Plug-In . SVG Version: 6.00 Build 0)  -->
<svg version="1.0" id="Layer_1" xmlns="http://www.w3.org/2000/svg" xmlns:xlink="http://www.w3.org/1999/xlink" x="0px" y="0px"
	 viewBox="0 0 566.9 149" style="enable-background:new 0 0 566.9 149;" xml:space="preserve">
<style type="text/css">
	.st0{fill:#FFFFFF;}
</style>
<g>
	<path class="st0" d="M29,87.9c1.3,2.5,3,4.5,5.1,6c2.1,1.5,4.6,2.7,7.5,3.4c2.9,0.7,5.8,1.1,8.9,1.1c2.1,0,4.3-0.2,6.7-0.5
		c2.4-0.3,4.6-1,6.7-2c2.1-1,3.8-2.4,5.2-4.1c1.4-1.7,2.1-3.9,2.1-6.6c0-2.9-0.9-5.2-2.7-7c-1.8-1.8-4.2-3.3-7.2-4.5
		c-3-1.2-6.3-2.2-10.1-3.1c-3.8-0.9-7.6-1.9-11.4-3c-4-1-7.8-2.2-11.6-3.6c-3.8-1.4-7.1-3.3-10.1-5.6c-3-2.3-5.4-5.1-7.2-8.5
		C9,46.5,8,42.4,8,37.5c0-5.4,1.2-10.2,3.5-14.2c2.3-4,5.4-7.4,9.1-10c3.8-2.7,8-4.7,12.8-5.9c4.8-1.3,9.5-1.9,14.3-1.9
		c5.5,0,10.9,0.6,16,1.9c5.1,1.2,9.6,3.2,13.6,6c4,2.8,7.1,6.3,9.4,10.6c2.3,4.3,3.5,9.5,3.5,15.7H67.7c-0.2-3.2-0.9-5.8-2-7.9
		c-1.1-2.1-2.7-3.7-4.5-4.9c-1.9-1.2-4-2-6.5-2.5c-2.4-0.5-5.1-0.7-8-0.7c-1.9,0-3.8,0.2-5.6,0.6c-1.9,0.4-3.6,1.1-5.1,2.1
		c-1.5,1-2.8,2.2-3.8,3.7c-1,1.5-1.5,3.4-1.5,5.6c0,2.1,0.4,3.8,1.2,5.1c0.8,1.3,2.4,2.5,4.7,3.6c2.3,1.1,5.5,2.2,9.7,3.3
		c4.1,1.1,9.5,2.5,16.1,4.2c2,0.4,4.7,1.1,8.2,2.2c3.5,1,7,2.7,10.5,5c3.5,2.3,6.5,5.3,9,9.1c2.5,3.8,3.8,8.7,3.8,14.6
		c0,4.9-0.9,9.4-2.8,13.5c-1.9,4.2-4.7,7.8-8.4,10.8c-3.7,3-8.3,5.4-13.8,7.1c-5.5,1.7-11.9,2.5-19.1,2.5c-5.8,0-11.5-0.7-17-2.2
		c-5.5-1.4-10.4-3.7-14.6-6.8c-4.2-3.1-7.6-7-10-11.7C5.6,91,4.4,85.4,4.5,78.8h22.6C27.1,82.4,27.7,85.4,29,87.9z"/>
	<path class="st0" d="M121.8,37.2V47h0.3c2.6-4.2,5.8-7.2,9.8-9.1c4-1.9,8.3-2.8,13.1-2.8c6,0,11.2,1.1,15.6,3.4
		c4.4,2.3,8,5.3,10.9,9.1c2.9,3.8,5,8.2,6.4,13.2c1.4,5,2.1,10.2,2.1,15.7c0,5.2-0.7,10.1-2.1,14.9c-1.4,4.8-3.5,9-6.3,12.6
		c-2.8,3.7-6.3,6.6-10.6,8.8c-4.2,2.2-9.1,3.3-14.8,3.3c-4.8,0-9.1-1-13.2-2.9c-4-1.9-7.3-4.8-9.9-8.5h-0.3V141h-21.1V37.2H121.8z
		 M149.2,98.2c2.3-1.4,4.2-3.2,5.6-5.4c1.4-2.2,2.5-4.8,3-7.8c0.6-3,0.9-6,0.9-9.1c0-3.1-0.3-6.1-1-9.1c-0.6-3-1.7-5.6-3.2-8
		c-1.5-2.3-3.4-4.2-5.7-5.6c-2.3-1.4-5.2-2.2-8.5-2.2c-3.5,0-6.4,0.7-8.7,2.2c-2.3,1.4-4.2,3.3-5.6,5.6c-1.4,2.3-2.5,4.9-3,7.9
		c-0.6,3-0.9,6-0.9,9.2c0,3.1,0.3,6.1,1,9.1c0.6,3,1.7,5.6,3.1,7.8c1.4,2.2,3.3,4,5.7,5.4c2.4,1.4,5.3,2.1,8.6,2.1
		C143.9,100.2,146.8,99.6,149.2,98.2z"/>
	<path class="st0" d="M189.2,59c1.9-5,4.6-9.3,8-12.8c3.5-3.5,7.6-6.2,12.5-8.2c4.9-1.9,10.3-2.9,16.3-2.9c6,0,11.5,1,16.4,2.9
		c4.9,1.9,9.1,4.7,12.6,8.2c3.5,3.5,6.1,7.8,8,12.8c1.9,5,2.8,10.6,2.8,16.7c0,6.1-0.9,11.7-2.8,16.6c-1.9,5-4.6,9.2-8,12.7
		c-3.5,3.5-7.7,6.2-12.6,8.1c-4.9,1.9-10.4,2.8-16.4,2.8c-6,0-11.5-0.9-16.3-2.8c-4.9-1.9-9-4.6-12.5-8.1c-3.5-3.5-6.1-7.8-8-12.7
		c-1.9-5-2.8-10.5-2.8-16.6C186.4,69.6,187.3,64,189.2,59z M208.4,84.7c0.6,2.9,1.6,5.6,3,7.9c1.4,2.3,3.3,4.2,5.7,5.6
		c2.4,1.4,5.3,2.1,8.9,2.1c3.6,0,6.6-0.7,9-2.1c2.4-1.4,4.4-3.2,5.8-5.6c1.4-2.3,2.5-5,3-7.9c0.6-2.9,0.9-5.9,0.9-9
		c0-3.1-0.3-6.1-0.9-9.1c-0.6-3-1.6-5.6-3-7.9c-1.4-2.3-3.4-4.1-5.8-5.6c-2.4-1.4-5.4-2.2-9-2.2c-3.6,0-6.5,0.7-8.9,2.2
		c-2.4,1.4-4.3,3.3-5.7,5.6c-1.4,2.3-2.5,4.9-3,7.9c-0.6,3-0.9,6-0.9,9.1C207.5,78.8,207.8,81.8,208.4,84.7z"/>
	<path class="st0" d="M276.3,59c1.9-5,4.6-9.3,8-12.8c3.5-3.5,7.6-6.2,12.5-8.2c4.9-1.9,10.3-2.9,16.4-2.9c6,0,11.5,1,16.4,2.9
		c4.9,1.9,9.1,4.7,12.6,8.2c3.5,3.5,6.1,7.8,8,12.8c1.9,5,2.8,10.6,2.8,16.7c0,6.1-0.9,11.7-2.8,16.6c-1.9,5-4.6,9.2-8,12.7
		c-3.5,3.5-7.7,6.2-12.6,8.1c-4.9,1.9-10.4,2.8-16.4,2.8c-6,0-11.5-0.9-16.4-2.8c-4.9-1.9-9-4.6-12.5-8.1c-3.5-3.5-6.1-7.8-8-12.7
		c-1.9-5-2.8-10.5-2.8-16.6C273.5,69.6,274.4,64,276.3,59z M295.5,84.7c0.6,2.9,1.6,5.6,3,7.9c1.4,2.3,3.3,4.2,5.7,5.6
		c2.4,1.4,5.3,2.1,8.9,2.1c3.6,0,6.6-0.7,9-2.1c2.4-1.4,4.4-3.2,5.8-5.6c1.4-2.3,2.5-5,3-7.9c0.6-2.9,0.9-5.9,0.9-9
		c0-3.1-0.3-6.1-0.9-9.1c-0.6-3-1.6-5.6-3-7.9c-1.4-2.3-3.4-4.1-5.8-5.6c-2.4-1.4-5.4-2.2-9-2.2c-3.6,0-6.5,0.7-8.9,2.2
		c-2.4,1.4-4.3,3.3-5.7,5.6c-1.4,2.3-2.5,4.9-3,7.9c-0.6,3-0.9,6-0.9,9.1C294.6,78.8,294.9,81.8,295.5,84.7z"/>
	<path class="st0" d="M405.2,37.2v14.1h-15.5v38c0,3.6,0.6,5.9,1.8,7.1c1.2,1.2,3.6,1.8,7.1,1.8c1.2,0,2.3,0,3.4-0.1
		c1.1-0.1,2.1-0.2,3.1-0.4v16.3c-1.8,0.3-3.8,0.5-5.9,0.6c-2.2,0.1-4.3,0.1-6.4,0.1c-3.3,0-6.4-0.2-9.3-0.7
		c-2.9-0.4-5.5-1.3-7.7-2.6c-2.2-1.3-4-3.1-5.3-5.5c-1.3-2.4-1.9-5.5-1.9-9.4V51.3h-12.8V37.2h12.8v-23h21.1v23H405.2z"/>
	<path class="st0" d="M412.2,25.3V7.9h21.1v17.4H412.2z M433.3,37.2v76.8h-21.1V37.2H433.3z"/>
	<path class="st0" d="M438.2,51.3V37.2h12.6v-5.9c0-6.8,2.1-12.4,6.4-16.8c4.3-4.4,10.7-6.5,19.3-6.5c1.9,0,3.8,0.1,5.6,0.2
		c1.9,0.1,3.7,0.3,5.5,0.4v15.8c-2.5-0.3-5.1-0.4-7.7-0.4c-2.9,0-4.9,0.7-6.2,2c-1.2,1.3-1.9,3.6-1.9,6.8v4.6h14.6v14.1h-14.6v62.7
		h-21.1V51.3H438.2z"/>
	<path class="st0" d="M520.4,137c-4.1,2.7-9.7,4-16.9,4c-2.2,0-4.3-0.1-6.5-0.2c-2.1-0.1-4.3-0.3-6.5-0.5v-17.4c2,0.2,4,0.4,6.1,0.6
		c2.1,0.2,4.2,0.2,6.2,0.1c2.8-0.3,4.8-1.4,6.2-3.3c1.3-1.9,2-4,2-6.2c0-1.7-0.3-3.3-0.9-4.8l-26.9-72.1h22.4l17.4,52.6h0.3
		l16.8-52.6H562l-32.1,86.4C527.6,129.8,524.4,134.3,520.4,137z"/>
	<path class="st0" d="M269.3,143.9c-19,0-33.4-8.5-33.4-19.7h12.3c0,2.2,7.4,7.5,21.1,7.5c13.7,0,21.1-5.3,21.1-7.5h12.3
		C302.7,135.4,288.3,143.9,269.3,143.9z"/>
</g>
</svg>
